<svg width="100" height="100" viewBox="0 0 100 100" fill="none" xmlns="http://www.w3.org/2000/svg">
  <path d="M 96.00 50.00 C 95.96 51.91 94.32 53.91 93.36 55.71 C 92.41 57.51 90.73 58.94 90.27 60.79 C 89.81 62.64 90.67 64.78 90.60 66.82 C 90.53 68.85 90.82 71.36 89.83 73.00 C 88.85 74.63 86.43 75.55 84.70 76.63 C 82.97 77.71 80.80 78.10 79.48 79.48 C 78.15 80.85 77.83 83.14 76.75 84.87 C 75.67 86.59 74.67 88.91 73.00 89.83 C 71.33 90.76 68.77 90.34 66.74 90.41 C 64.70 90.48 62.62 89.74 60.79 90.27 C 58.96 90.79 57.53 92.62 55.74 93.57 C 53.94 94.53 51.91 96.03 50.00 96.00 C 48.09 95.96 46.09 94.32 44.29 93.36 C 42.49 92.41 41.06 90.73 39.21 90.27 C 37.36 89.81 35.22 90.67 33.18 90.60 C 31.15 90.53 28.64 90.82 27.00 89.83 C 25.37 88.85 24.45 86.43 23.37 84.70 C 22.29 82.97 21.90 80.80 20.52 79.48 C 19.15 78.15 16.86 77.83 15.13 76.75 C 13.41 75.67 11.09 74.67 10.17 73.00 C 9.24 71.33 9.66 68.77 9.59 66.74 C 9.52 64.70 10.26 62.62 9.73 60.79 C 9.21 58.96 7.38 57.53 6.43 55.74 C 5.47 53.94 3.97 51.91 4.00 50.00 C 4.04 48.09 5.68 46.09 6.64 44.29 C 7.59 42.49 9.27 41.06 9.73 39.21 C 10.19 37.36 9.33 35.22 9.40 33.18 C 9.47 31.15 9.18 28.64 10.17 27.00 C 11.15 25.37 13.57 24.45 15.30 23.37 C 17.03 22.29 19.20 21.90 20.52 20.52 C 21.85 19.15 22.17 16.86 23.25 15.13 C 24.33 13.41 25.33 11.09 27.00 10.17 C 28.67 9.24 31.23 9.66 33.26 9.59 C 35.30 9.52 37.38 10.26 39.21 9.73 C 41.04 9.21 42.47 7.38 44.26 6.43 C 46.06 5.47 48.09 3.97 50.00 4.00 C 51.91 4.04 53.91 5.68 55.71 6.64 C 57.51 7.59 58.94 9.27 60.79 9.73 C 62.64 10.19 64.78 9.33 66.82 9.40 C 68.85 9.47 71.36 9.18 73.00 10.17 C 74.63 11.15 75.55 13.57 76.63 15.30 C 77.71 17.03 78.10 19.20 79.48 20.52 C 80.85 21.85 83.14 22.17 84.87 23.25 C 86.59 24.33 88.91 25.33 89.83 27.00 C 90.76 28.67 90.34 31.23 90.41 33.26 C 90.48 35.30 89.74 37.38 90.27 39.21 C 90.79 41.04 92.62 42.47 93.57 44.26 C 94.53 46.06 96.03 48.09 96.00 50.00 Z" fill="#2563eb"/>
  <path d="M 28.09 48.11 L 44.77 66.02 L 71.77 38.78" fill="none" stroke="#ffffff" stroke-width="8.8" stroke-linecap="round" stroke-linejoin="round"/>
</svg>
